<svg xmlns="http://www.w3.org/2000/svg" width="67" height="58" fill="currentColor" viewBox="0 0 67 58">
  <g clip-path="url(#a)">
    <path d="m33.58 17.15-21.8.13L0 0h23.6l8.09 13.91 1.89 3.24Zm29.38 39.97H39.6l-8.01-13.83 13.77-12.53 17.6 26.36ZM21 41.06l-.88.88-.13-.9 1.01.02Z"/>
    <path d="m65.38 8.93-51.15 46.6c-1.68 1.62-3.62 2.89-5.51.92-1.89-1.97-1.13-3.91.56-5.52L57.73 2.55c1.96-1.88 4.87-1.42 7.62-.45 1.42.5 2.74 2.98.03 6.83Z"/>
    <path d="m21 41.06-.88.88-.13-.9 1.01.02ZM7.27 22.5l.18-.94c.19-.97 1-1.61 2.01-1.6l31.66-.23-18.83 18.69-.55-3.97c-.27-1.94-1.62-3.73-3.46-4.59l-9.35-4.35c-1.18-.55-1.89-1.84-1.66-3.01Z"/>
    <path d="m21 41.06-.88.88-.13-.9 1.01.02Zm-6.3 2.55-6.36 6.34c-.44.42-.79.83-1.06 1.23L.92 47.35c-.56-.33-.84-.99-.69-1.55l.48-1.7c.13-.46.54-.75 1.03-.74l12.94.24.02.01Z"/>
  </g>
  <defs>
    <clipPath id="a">
      <path d="M0 0h66.95v57.45H0z"/>
    </clipPath>
  </defs>
</svg>
