<svg xmlns="http://www.w3.org/2000/svg" width="597" height="294" fill="currentColor" viewBox="0 0 597 294">
  <g clip-path="url(#a)">
    <path d="M0 123.127V3.377h30.23v119.75H0Zm23.977-94.264V3.378h63.989v25.485h-63.99Zm0 45.597V49.627H82.71V74.46H23.977Zm0 48.667V97.642H88.81v25.485H23.977Zm121.418-57.802-31.496.192L96.866 40.53h34.104l11.701 20.111 2.724 4.683Zm42.467 57.802h-33.759l-11.586-19.997 19.911-18.116 25.434 38.113Zm-60.651-23.221-1.266 1.267-.192-1.305 1.458.038Z"/>
    <path d="m191.391 53.427-73.924 67.397c-2.417 2.341-5.218 4.184-7.98 1.343-2.724-2.84-1.611-5.642.806-7.983l70.05-69.93c2.839-2.725 7.059-2.073 11.01-.653 2.072.73 3.951 4.299.038 9.864v-.038Z"/>
    <path d="m127.211 99.906-1.266 1.267-.192-1.305 1.458.038ZM107.377 73.04l.269-1.344c.268-1.42 1.457-2.341 2.915-2.303l45.767-.345-27.199 27.02-.806-5.757c-.383-2.802-2.34-5.412-4.987-6.64l-13.504-6.295c-1.688-.806-2.723-2.648-2.416-4.375l-.039.038Z"/>
    <path d="m127.211 99.906-1.266 1.267-.192-1.305 1.458.038Zm-9.092 3.685-9.169 9.173c-.614.614-1.151 1.19-1.534 1.766l-9.207-5.527c-.806-.499-1.228-1.42-.998-2.226l.69-2.457c.192-.652.768-1.075 1.497-1.075l18.721.346Zm78.375 54.655V40.53h29.539v20.765l-4.719 20.111 4.067 19.92v56.92h-28.887Zm49.257-33.43c-5.179 0-10.012-.96-14.501-2.879-4.488-1.919-8.248-4.529-11.24-7.868-2.992-3.301-4.795-7.177-5.486-11.553V62.331c.691-4.26 2.494-8.214 5.486-11.821 2.992-3.608 6.713-6.448 11.125-8.521 4.45-2.073 9.322-3.109 14.616-3.109 7.98 0 15.039 1.842 21.177 5.489 6.138 3.646 10.895 8.75 14.27 15.275 3.376 6.525 5.064 13.894 5.064 22.108s-1.726 15.736-5.14 22.223c-3.415 6.486-8.172 11.552-14.271 15.275-6.062 3.723-13.12 5.566-21.1 5.566Zm-5.562-26.176c3.261 0 6.138-.73 8.593-2.188 2.494-1.459 4.373-3.454 5.639-5.987 1.305-2.534 1.957-5.412 1.957-8.713 0-3.3-.652-6.141-1.957-8.597-1.304-2.495-3.145-4.453-5.562-5.911-2.417-1.459-5.256-2.188-8.517-2.188-3.03 0-5.754.691-8.171 2.111-2.417 1.42-4.297 3.34-5.639 5.834-1.343 2.495-2.034 5.412-2.034 8.79 0 3.377.653 6.179 1.957 8.712 1.304 2.533 3.146 4.529 5.562 5.987 2.417 1.459 5.141 2.188 8.172 2.188v-.038Zm58.081 24.487V0h29.539v123.127H298.27Zm87.237 1.996c-8.786 0-16.65-1.919-23.632-5.757-6.982-3.839-12.468-9.02-16.457-15.622-3.99-6.601-5.985-13.932-5.985-22.03 0-8.099 1.995-15.737 5.985-22.223 3.989-6.487 9.475-11.591 16.457-15.353 6.982-3.761 14.808-5.642 23.478-5.642 8.67 0 16.956 1.881 23.9 5.642 6.905 3.762 12.391 8.905 16.381 15.353 3.99 6.486 5.984 13.894 5.984 22.223 0 8.328-1.956 15.467-5.907 22.03-3.952 6.602-9.399 11.783-16.381 15.622-6.982 3.838-14.923 5.757-23.785 5.757h-.038Zm-.154-26.33c3.261 0 6.138-.729 8.593-2.188 2.456-1.458 4.374-3.454 5.755-5.987 1.342-2.533 2.033-5.489 2.033-8.866 0-3.378-.691-6.333-2.11-8.866-1.419-2.533-3.338-4.49-5.754-5.91-2.417-1.42-5.256-2.112-8.517-2.112-3.031 0-5.754.73-8.171 2.188-2.417 1.458-4.335 3.454-5.755 5.987-1.419 2.534-2.11 5.489-2.11 8.867 0 3.377.691 6.179 2.11 8.712 1.42 2.533 3.338 4.529 5.755 5.988 2.417 1.458 5.14 2.187 8.171 2.187Zm57.736 24.334V40.531h29.539v82.596h-29.539Zm29.539-44.944-13.005-11.131c3.146-9.327 7.443-16.389 12.813-21.11 5.41-4.72 12.507-7.1 21.253-7.1 3.837 0 7.174.499 10.051 1.535 2.878 1.036 5.333 2.61 7.328 4.72L494.035 68.05c-.998-1.113-2.302-1.996-3.875-2.61-1.573-.614-3.414-.921-5.563-.921-3.721 0-6.636 1.151-8.785 3.454-2.148 2.303-3.222 5.719-3.222 10.21h.038Zm83.708 46.94c-9.361 0-17.57-1.843-24.629-5.566-7.097-3.723-12.622-8.827-16.611-15.352-3.99-6.525-5.985-13.97-5.985-22.3 0-8.328 1.957-15.89 5.831-22.376 3.875-6.486 9.246-11.59 16.113-15.352 6.867-3.762 14.577-5.642 23.132-5.642 8.555 0 15.729 1.765 22.212 5.335 6.484 3.53 11.548 8.444 15.192 14.7 3.644 6.256 5.486 13.433 5.486 21.532 0 1.573-.115 3.224-.345 4.99-.231 1.765-.576 3.76-.998 5.987l-72.736.345V72.502l61.112-.345-13.158 8.098c-.115-4.49-.806-8.29-2.033-11.322-1.228-3.033-3.031-5.335-5.41-6.832-2.378-1.497-5.332-2.265-8.938-2.265-3.606 0-6.79.883-9.552 2.61-2.762 1.766-4.872 4.299-6.33 7.6-1.458 3.339-2.187 7.254-2.187 11.744 0 4.836.806 8.905 2.379 12.167 1.572 3.263 3.836 5.719 6.751 7.331 2.916 1.65 6.522 2.456 10.819 2.456 3.951 0 7.48-.652 10.626-1.957 3.146-1.305 5.946-3.34 8.44-6.18l15.537 15.2c-4.297 4.72-9.322 8.29-15.115 10.708-5.793 2.418-12.314 3.646-19.488 3.646l-.115-.038ZM0 292.004V172.255h21.79l45.728 69.393h-9.974l45.575-69.393h21.79v119.749H94.871v-69.585l4.719 1.19-27.161 41.375h-19.91L25.51 223.609l4.565-1.19v69.585H0Zm182.146 1.842c-7.864 0-14.846-1.535-20.831-4.644-6.023-3.109-10.742-7.446-14.194-13.011-3.453-5.565-5.141-11.898-5.141-18.999v-47.784h29.539v47.784c0 2.265.422 4.222 1.266 5.911.844 1.689 2.034 2.994 3.645 3.877 1.573.921 3.414 1.343 5.563 1.343 3.145 0 5.677-.998 7.595-2.955 1.918-1.958 2.878-4.683 2.878-8.176v-47.784h29.539v47.784c0 7.216-1.688 13.587-5.064 19.076-3.376 5.527-8.056 9.825-14.079 12.934-6.023 3.109-12.928 4.644-20.678 4.644h-.038Zm54.667-1.842v-82.596h29.539v82.596h-29.539Zm53.516 0v-46.787c0-3.723-1.113-6.639-3.3-8.789-2.186-2.149-5.025-3.224-8.516-3.224-2.379 0-4.488.461-6.33 1.42a10.136 10.136 0 0 0-4.296 4.222c-.998 1.842-1.535 4.03-1.535 6.487l-11.317-5.412c0-6.64 1.419-12.397 4.297-17.233 2.877-4.836 6.905-8.559 12.084-11.131 5.179-2.571 10.972-3.876 17.378-3.876 5.946 0 11.279 1.381 15.959 4.145 4.68 2.763 8.363 6.448 11.048 11.054 2.686 4.605 4.067 9.787 4.067 15.544v53.542h-29.539v.038Zm80.331 1.689c-7.864 0-14.885-1.842-21.023-5.565-6.138-3.723-10.933-8.79-14.347-15.276-3.414-6.486-5.141-13.856-5.141-22.223 0-8.367 1.727-15.583 5.141-22.107 3.414-6.525 8.171-11.63 14.271-15.276 6.061-3.646 13.12-5.489 21.099-5.489 5.294 0 10.166.922 14.693 2.802 4.527 1.881 8.286 4.491 11.317 7.868 3.031 3.378 4.834 7.216 5.409 11.476v40.377c-.575 4.376-2.378 8.368-5.409 11.899-3.031 3.531-6.829 6.371-11.317 8.443-4.488 2.073-9.399 3.109-14.693 3.109v-.038Zm5.409-26.176c3.146 0 5.947-.729 8.363-2.188 2.417-1.458 4.297-3.416 5.64-5.91 1.342-2.457 2.033-5.412 2.033-8.79 0-3.377-.652-6.141-1.957-8.597-1.304-2.495-3.145-4.452-5.562-5.911-2.417-1.458-5.218-2.188-8.363-2.188-3.146 0-5.946.73-8.363 2.188-2.417 1.459-4.374 3.454-5.831 5.988-1.458 2.533-2.187 5.373-2.187 8.52 0 3.148.69 6.18 2.11 8.713 1.419 2.533 3.337 4.529 5.831 5.987 2.455 1.459 5.217 2.188 8.286 2.188Zm44.041 24.487h-29.041v-22.299l4.22-19.92-4.719-20.112v-60.796h29.54v123.127ZM477.692 294c-8.785 0-16.649-1.919-23.631-5.757-6.982-3.838-12.468-9.02-16.458-15.621-3.99-6.602-5.984-13.933-5.984-22.031 0-8.099 1.994-15.736 5.984-22.223 3.99-6.486 9.476-11.591 16.458-15.352 6.982-3.762 14.808-5.642 23.478-5.642 8.67 0 16.956 1.88 23.9 5.642 6.905 3.761 12.391 8.904 16.38 15.352 3.99 6.487 5.985 13.894 5.985 22.223 0 8.329-1.956 15.467-5.908 22.031-3.951 6.601-9.399 11.783-16.381 15.621-6.982 3.838-14.923 5.757-23.785 5.757h-.038Zm-.192-26.33c3.261 0 6.138-.729 8.594-2.187 2.455-1.459 4.373-3.455 5.754-5.988 1.343-2.533 2.033-5.488 2.033-8.866 0-3.377-.69-6.333-2.11-8.866-1.419-2.533-3.337-4.49-5.754-5.911-2.417-1.42-5.256-2.11-8.517-2.11-3.03 0-5.754.729-8.171 2.187-2.417 1.459-4.335 3.455-5.754 5.988-1.42 2.533-2.11 5.488-2.11 8.866 0 3.377.69 6.179 2.11 8.712 1.419 2.533 3.337 4.529 5.754 5.988 2.417 1.458 5.141 2.187 8.171 2.187Z"/>
  </g>
  <defs>
    <clipPath id="a">
      <path d="M0 0h597v294H0z"/>
    </clipPath>
  </defs>
</svg>
